<svg width="78" height="131" viewBox="0 0 78 131" fill="none" xmlns="http://www.w3.org/2000/svg">
<path d="M45.4857 23.2846L45.5074 23.2717L45.529 23.2586C49.9144 20.6008 51.386 14.9576 48.7588 10.4674C46.155 5.97091 40.3592 4.52914 35.9352 7.19051C25.3626 13.4473 17.1612 19.0508 11.9656 28.3287C6.81937 37.5183 5 49.6076 5 67.9201V101.608C5 115.067 15.9366 125.92 29.3125 125.92H48.0625C61.8239 125.92 72.375 115.369 72.375 101.608V82.8576C72.375 69.148 61.8132 58.6076 48.0625 58.6076H23.904C24.4126 47.428 25.9503 41.2693 28.5816 36.9241C31.5794 31.9736 36.3771 28.6799 45.4857 23.2846Z" stroke="#3F3F46" stroke-width="10"/>
</svg>
